#!OML:ASF F:\VICON\USERDATA\INSTALL\rory3\rory3.ASF
:FULLY-SPECIFIED
:DEGREES
2386
root 1.21478 17.5496 -3.10339 -361.208 19.1496 363.148
lowerback 2.98389 -2.9008 -6.85609
upperback -2.48283 -4.17684 0.794393
thorax -3.70799 -1.87936 4.90196
lowerneck -21.7667 -0.646808 -10.6291
upperneck 24.0314 2.72467 0.484077
head 11.3353 0.308347 2.36895
rclavicle 1.34677e-014 -8.34896e-015
rhumerus 54.8456 -73.1405 -42.0899
rradius 66.9552
rwrist -20.8477
rhand -34.2768 -4.03592
rfingers 7.12502
rthumb -7.4468 -33.8849
lclavicle 1.34677e-014 -8.34896e-015
lhumerus 29.9586 67.57 22.4936
lradius 55.5976
lwrist 34.0298
lhand -16.3965 28.4749
lfingers 7.12502
lthumb 9.81761 58.2261
rfemur -25.2994 3.82176 7.47732
rtibia 27.1183
rfoot -12.0318 -9.82884
rtoes 2.55818
lfemur 12.674 -1.58233 -24.7856
ltibia 11.1595
lfoot -17.7627 -6.5593
ltoes -15.3486
2387
root 1.21346 17.5464 -3.05359 -361.252 19.2296 363.083
lowerback 3.02203 -2.88138 -6.91948
upperback -2.46659 -4.15555 0.818559
thorax -3.7097 -1.86706 4.96355
lowerneck -21.697 -0.665998 -10.6544
upperneck 24.157 2.70425 0.482543
head 11.3713 0.291447 2.37099
rclavicle -9.02482e-014 -1.55052e-014
rhumerus 57.5552 -73.8152 -44.6543
rradius 66.9561
rwrist -20.8766
rhand -34.4656 -4.04762
rfingers 7.12502
rthumb -7.62902 -33.89
lclavicle -9.02482e-014 -1.55052e-014
lhumerus 30.4999 68.3419 23.054
lradius 55.5371
lwrist 34.4753
lhand -16.3984 28.7049
lfingers 7.12502
lthumb 9.81578 58.4562
rfemur -25.1952 3.89429 7.63593
rtibia 27.1472
rfoot -12.0383 -10.1006
rtoes 2.36776
lfemur 12.9519 -1.60112 -24.6477
ltibia 11.0776
lfoot -17.7506 -6.63298
ltoes -15.0556
2388
root 1.21233 17.5386 -3.00484 -361.191 19.2233 363.064
lowerback 2.9954 -2.84959 -6.9847
upperback -2.47632 -4.11513 0.800992
thorax -3.70746 -1.84516 4.9787
lowerneck -21.6746 -0.645741 -10.5352
upperneck 24.2654 2.71602 0.404999
head 11.4105 0.292911 2.32652
rclavicle 1.81888e-014 -1.98785e-014
rhumerus 60.4795 -74.407 -47.5508
rradius 67.0171
rwrist -21.2096
rhand -34.6911 -3.96666
rfingers 7.12502
rthumb -7.84667 -33.801
lclavicle 1.81888e-014 -1.98785e-014
lhumerus 30.8723 69.0235 23.402
lradius 55.5007
lwrist 34.9668
lhand -16.518 28.7753
lfingers 7.12502
lthumb 9.70042 58.5319
rfemur -25.2744 3.88973 7.76019
rtibia 27.2439
rfoot -12.0684 -10.2613
rtoes 3.60127
lfemur 13.1423 -1.57871 -24.5708
ltibia 10.9534
lfoot -17.5352 -6.70844
ltoes -14.0316
2389
root 1.21187 17.528 -2.95514 -361.117 19.228 363.068
lowerback 3.00523 -2.83624 -7.01757
upperback -2.57028 -4.10448 0.758491
thorax -3.81398 -1.83239 4.95664
lowerneck -21.5073 -0.623125 -10.5599
upperneck 24.4085 2.71416 0.500812
head 11.43 0.297493 2.36693
rclavicle 7.50412e-014 -1.19271e-015
rhumerus 63.0098 -74.856 -50.0881
rradius 67.0955
rwrist -21.8145
rhand -34.7591 -3.88312
rfingers 7.12502
rthumb -7.9123 -33.715
lclavicle 7.50412e-014 -1.19271e-015
lhumerus 30.6675 69.4919 23.1861
lradius 55.5075
lwrist 35.5311
lhand -16.6405 28.9394
lfingers 7.12502
lthumb 9.58225 58.7015
rfemur -25.3155 3.83312 7.86775
rtibia 27.3603
rfoot -12.0109 -10.427
rtoes 4.4637
lfemur 13.2392 -1.64451 -24.5484
ltibia 10.9469
lfoot -17.6026 -6.59795
ltoes -14.2281
2390
root 1.20968 17.5149 -2.9036 -361.044 19.3196 363.141
lowerback 3.05466 -2.85614 -7.12647
upperback -2.69433 -4.14696 0.700176
thorax -3.96391 -1.84132 4.9665
lowerneck -21.2474 -0.600094 -10.7055
upperneck 24.5516 2.69984 0.743345
head 11.4274 0.305293 2.47869
rclavicle -4.50993e-014 -1.2921e-014
rhumerus 65.0846 -75.1762 -52.2435
rradius 67.1977
rwrist -22.1138
rhand -34.8381 -4.02914
rfingers 7.12502
rthumb -7.98852 -33.8582
lclavicle -4.50993e-014 -1.2921e-014
lhumerus 30.4766 69.9091 23.0225
lradius 55.4818
lwrist 35.9108
lhand -16.6277 29.0298
lfingers 7.12502
lthumb 9.59457 58.7914
rfemur -25.2883 3.77364 7.90318
rtibia 27.5582
rfoot -11.9585 -10.6175
rtoes 4.65996
lfemur 13.3541 -1.68621 -24.5633
ltibia 10.89
lfoot -17.8334 -6.53693
ltoes -15.609
2391
root 1.20683 17.5031 -2.85179 -361.065 19.3935 363.154
lowerback 3.12189 -2.87297 -7.21621
upperback -2.71672 -4.18087 0.6837
thorax -4.0166 -1.8528 5.00615
lowerneck -21.139 -0.582756 -10.6714
upperneck 24.6607 2.71538 0.702353
head 11.4487 0.306018 2.46136
rclavicle 2.28602e-015 -2.78299e-015
rhumerus 67.5955 -75.44 -54.7736
rradius 67.2261
rwrist -22.2334
rhand -35.1353 -4.22127
rfingers 7.12502
rthumb -8.27531 -34.0392
lclavicle 2.28602e-015 -2.78299e-015
lhumerus 30.4032 70.431 23.0477
lradius 55.4623
lwrist 36.255
lhand -16.7061 29.2217
lfingers 7.12502
lthumb 9.51891 58.9867
rfemur -25.1919 3.73525 8.02105
rtibia 27.8424
rfoot -11.8866 -10.7201
rtoes 5.02129
lfemur 13.6138 -1.72597 -24.521
ltibia 10.7281
lfoot -17.9533 -6.42882
ltoes -16.5533
2392
root 1.20361 17.4953 -2.79818 -361.06 19.3922 363.172
lowerback 3.12289 -2.86779 -7.33913
upperback -2.6966 -4.17874 0.705864
thorax -3.98709 -1.8496 5.09715
lowerneck -21.2787 -0.602222 -10.5692
upperneck 24.898 2.754 0.459878
head 11.5729 0.288759 2.36626
rclavicle 6.62698e-014 5.96354e-016
rhumerus 70.3425 -75.6348 -57.5373
rradius 67.2558
rwrist -22.3231
rhand -35.4622 -4.04366
rfingers 7.12502
rthumb -8.5908 -33.8489
lclavicle 6.62698e-014 5.96354e-016
lhumerus 30.0119 70.9484 22.8029
lradius 55.4541
lwrist 36.6733
lhand -16.9408 29.4653
lfingers 7.12502
lthumb 9.29242 59.2405
rfemur -25.1161 3.69811 8.14253
rtibia 28.1405
rfoot -11.8134 -10.7022
rtoes 5.56074
lfemur 13.8919 -1.8047 -24.5164
ltibia 10.5607
lfoot -17.9686 -6.2556
ltoes -16.6271
2393
root 1.2013 17.4896 -2.74683 -360.98 19.4486 363.19
lowerback 3.11848 -2.86695 -7.40746
upperback -2.76034 -4.18327 0.704018
thorax -4.04685 -1.84536 5.13586
lowerneck -21.2677 -0.605516 -10.6394
upperneck 25.1262 2.77831 0.482028
head 11.6567 0.285591 2.3939
rclavicle 3.85394e-014 -2.18663e-015
rhumerus 72.3722 -75.8003 -59.5953
rradius 67.2715
rwrist -22.2932
rhand -35.7014 -3.92291
rfingers 7.12502
rthumb -8.82169 -33.7185
lclavicle 3.85394e-014 -2.18663e-015
lhumerus 29.561 71.3058 22.4928
lradius 55.3971
lwrist 37.0313
lhand -17.2111 29.6492
lfingers 7.12502
lthumb 9.03163 59.4359
rfemur -25.0695 3.55247 8.25104
rtibia 28.3885
rfoot -11.6748 -10.6821
rtoes 5.63823
lfemur 14.0389 -1.84063 -24.4927
ltibia 10.5177
lfoot -18.0352 -6.13359
ltoes -16.8223
2394
root 1.19812 17.4808 -2.69526 -360.927 19.5983 363.2
lowerback 3.16073 -2.86238 -7.38289
upperback -2.84449 -4.18564 0.624454
thorax -4.16637 -1.84067 5.04518
lowerneck -21.1021 -0.615089 -10.6133
upperneck 25.2692 2.72853 0.524632
head 11.6816 0.266429 2.39897
rclavicle -3.06874e-014 8.15017e-015
rhumerus 73.7951 -76.0318 -61.0833
rradius 67.26
rwrist -22.1553
rhand -35.8266 -3.94344
rfingers 7.12502
rthumb -8.94249 -33.7339
lclavicle -3.06874e-014 8.15017e-015
lhumerus 29.6481 71.5233 22.6593
lradius 55.2782
lwrist 37.1605
lhand -17.483 29.6691
lfingers 7.12502
lthumb 8.76925 59.4669
rfemur -24.9874 3.38321 8.35736
rtibia 28.6145
rfoot -11.3641 -10.8048
rtoes 5.1831
lfemur 14.1666 -1.88823 -24.4338
ltibia 10.5211
lfoot -17.9101 -6.20856
ltoes -16.0147
2395
root 1.19361 17.4734 -2.64357 -360.891 19.698 363.156
lowerback 3.15533 -2.86405 -7.32865
upperback -2.87153 -4.18723 0.58128
thorax -4.19802 -1.84162 4.97058
lowerneck -21.0248 -0.646778 -10.558
upperneck 25.3771 2.6774 0.464866
head 11.7138 0.236489 2.36091
rclavicle -1.11319e-014 4.96962e-015
rhumerus 75.8044 -76.1505 -63.1875
rradius 67.2612
rwrist -21.912
rhand -35.9785 -4.14622
rfingers 7.12502
rthumb -9.08908 -33.9304
lclavicle -1.11319e-014 4.96962e-015
lhumerus 29.716 71.8157 22.813
lradius 55.1651
lwrist 37.3412
lhand -17.8884 29.6745
lfingers 7.12502
lthumb 8.37803 59.4884
rfemur -24.9651 3.3705 8.48484
rtibia 28.8777
rfoot -10.9847 -11.0349
rtoes 5.23168
lfemur 14.3845 -1.96461 -24.3178
ltibia 10.3432
lfoot -17.4687 -6.34874
ltoes -14.1535
2396
root 1.18802 17.4727 -2.5924 -360.782 19.8066 363.226
lowerback 3.11556 -2.89825 -7.43305
upperback -2.91042 -4.23773 0.548122
thorax -4.20533 -1.86247 4.99542
lowerneck -20.982 -0.647949 -10.6803
upperneck 25.5212 2.67656 0.611984
head 11.7565 0.237764 2.4382
rclavicle 3.9906e-014 1.05356e-014
rhumerus 77.8146 -76.1047 -65.3393
rradius 67.2882
rwrist -21.8845
rhand -36.1328 -4.29622
rfingers 7.12502
rthumb -9.23792 -34.0739
lclavicle 3.9906e-014 1.05356e-014
lhumerus 29.3231 72.1208 22.5843
lradius 55.1142
lwrist 37.6422
lhand -18.2219 29.7917
lfingers 7.12502
lthumb 8.05619 59.6182
rfemur -25.029 3.36136 8.46453
rtibia 29.1746
rfoot -10.6007 -11.3668
rtoes 5.72339
lfemur 14.6516 -2.0994 -24.3311
ltibia 9.97486
lfoot -17.1081 -6.36309
ltoes -13.2833
